<svg width="24" height="24" viewBox="0 0 24 24" fill="none" xmlns="http://www.w3.org/2000/svg">
    <path
        d="M14.7 22V17.424C14.7 16.6959 14.4155 15.9975 13.9092 15.4826C13.4028 14.9677 12.7161 14.6785 12 14.6785C11.2839 14.6785 10.5972 14.9677 10.0908 15.4826C9.58446 15.9975 9.3 16.6959 9.3 17.424V22H4.8C4.32261 22 3.86477 21.8072 3.52721 21.4639C3.18964 21.1206 3 20.6551 3 20.1696V10.2233C3 9.90724 3.08049 9.59654 3.23363 9.32148C3.38678 9.04643 3.60736 8.81639 3.8739 8.65376L11.0739 4.26085C11.3536 4.09016 11.6738 4 12 4C12.3262 4 12.6464 4.09016 12.9261 4.26085L20.1261 8.65376C20.3926 8.81639 20.6132 9.04643 20.7664 9.32148C20.9195 9.59654 21 9.90724 21 10.2233V20.1696C21 20.6551 20.8104 21.1206 20.4728 21.4639C20.1352 21.8072 19.6774 22 19.2 22H14.7Z"
        fill="#BB6BD9" />
</svg>