<svg width="24" height="24" viewBox="0 0 24 24" fill="none" xmlns="http://www.w3.org/2000/svg">
<path d="M21.7133 10.48L19.48 9.81333C19.3256 9.2742 19.1132 8.75339 18.8467 8.26L19.94 6.21333C19.981 6.13607 19.9961 6.04765 19.9828 5.96118C19.9696 5.87471 19.9289 5.79481 19.8667 5.73333L18.2733 4.13333C18.2119 4.07111 18.132 4.03037 18.0455 4.01716C17.959 4.00395 17.8706 4.01897 17.7933 4.06L15.76 5.14666C15.2618 4.8671 14.7341 4.64352 14.1867 4.48L13.52 2.27333C13.4918 2.19201 13.4385 2.12173 13.3679 2.07261C13.2972 2.02349 13.2127 1.99807 13.1267 2H10.8733C10.7868 2.0004 10.7026 2.02842 10.633 2.07998C10.5635 2.13154 10.5122 2.20394 10.4867 2.28666L9.82001 4.48666C9.26802 4.64931 8.73585 4.87291 8.23334 5.15333L6.23334 4.07333C6.15609 4.0323 6.06767 4.01728 5.9812 4.03049C5.89473 4.0437 5.81482 4.08444 5.75334 4.14666L4.13334 5.72666C4.07112 5.78814 4.03038 5.86805 4.01717 5.95452C4.00396 6.04098 4.01899 6.12941 4.06001 6.20666L5.14001 8.20666C4.86005 8.70706 4.63646 9.23697 4.47334 9.78666L2.26668 10.4533C2.18396 10.4789 2.11155 10.5302 2.05999 10.5997C2.00843 10.6692 1.98041 10.7534 1.98001 10.84V13.0933C1.98041 13.1799 2.00843 13.2641 2.05999 13.3336C2.11155 13.4032 2.18396 13.4544 2.26668 13.48L4.48668 14.1467C4.65157 14.6872 4.87513 15.2081 5.15334 15.7L4.06001 17.7933C4.01899 17.8706 4.00396 17.959 4.01717 18.0455C4.03038 18.1319 4.07112 18.2118 4.13334 18.2733L5.72668 19.8667C5.78816 19.9289 5.86806 19.9696 5.95453 19.9828C6.041 19.996 6.12942 19.981 6.20668 19.94L8.26668 18.84C8.75399 19.1029 9.26802 19.313 9.80001 19.4667L10.4667 21.7133C10.4922 21.796 10.5435 21.8685 10.613 21.92C10.6826 21.9716 10.7668 21.9996 10.8533 22H13.1067C13.1932 21.9996 13.2774 21.9716 13.347 21.92C13.4165 21.8685 13.4678 21.796 13.4933 21.7133L14.16 19.46C14.6875 19.3056 15.197 19.0955 15.68 18.8333L17.7533 19.94C17.8306 19.981 17.919 19.996 18.0055 19.9828C18.092 19.9696 18.1719 19.9289 18.2333 19.8667L19.8267 18.2733C19.8889 18.2118 19.9296 18.1319 19.9428 18.0455C19.9561 17.959 19.941 17.8706 19.9 17.7933L18.7933 15.7267C19.0582 15.2418 19.2706 14.73 19.4267 14.2L21.6733 13.5333C21.7561 13.5078 21.8285 13.4565 21.88 13.387C21.9316 13.3174 21.9596 13.2332 21.96 13.1467V10.8733C21.9639 10.7904 21.9424 10.7083 21.8983 10.638C21.8542 10.5677 21.7897 10.5126 21.7133 10.48ZM12 15.6667C11.2748 15.6667 10.5659 15.4516 9.96292 15.0487C9.35994 14.6458 8.88997 14.0732 8.61245 13.4032C8.33493 12.7332 8.26232 11.9959 8.4038 11.2847C8.54528 10.5734 8.89449 9.92006 9.40729 9.40727C9.92008 8.89448 10.5734 8.54526 11.2847 8.40378C11.9959 8.2623 12.7332 8.33492 13.4032 8.61244C14.0732 8.88996 14.6458 9.35992 15.0487 9.9629C15.4516 10.5659 15.6667 11.2748 15.6667 12C15.6667 12.9725 15.2804 13.9051 14.5927 14.5927C13.9051 15.2804 12.9725 15.6667 12 15.6667Z" fill="#BDBDBD"/>
</svg>
